<?xml version="1.0"?>

<svg width="100%" height="100%" viewBox="0 0 834 834" version="1.1" xmlns="http://www.w3.org/2000/svg" xmlns:xlink="http://www.w3.org/1999/xlink" xml:space="preserve" xmlns:serif="http://www.serif.com/" style="fill-rule:evenodd;clip-rule:evenodd;stroke-linejoin:round;stroke-miterlimit:2;">
    <g transform="matrix(1,0,0,1,-2199.277064,-1066.666667)">
        <g transform="matrix(1.294118,0,0,0.772727,-7282.107843,0)">
            <g transform="matrix(0.934915,0,0,1.56574,6230.50906,-480.81706)">
                <circle cx="1516.699" cy="1533.093" r="344.384" style="fill:rgb(130,102,65);"></circle>
            </g>
        </g>
        <g transform="matrix(1.294118,0,0,0.772727,-7282.107843,0)">
            <g transform="matrix(0.698199,0,0,1.169302,3123.969421,2.069768)">
                <g transform="matrix(249.017369,0,0,249.017369,6080.139837,1678.522707)">
                    <path d="M0.118,-0.705C0.183,-0.701 0.299,-0.699 0.465,-0.701L0.546,-0.701C0.563,-0.701 0.576,-0.697 0.586,-0.689C0.596,-0.682 0.602,-0.672 0.605,-0.659C0.609,-0.639 0.612,-0.609 0.614,-0.571C0.617,-0.532 0.618,-0.499 0.618,-0.473C0.618,-0.46 0.614,-0.45 0.607,-0.443C0.6,-0.436 0.591,-0.433 0.579,-0.433C0.568,-0.433 0.557,-0.436 0.546,-0.441C0.536,-0.447 0.521,-0.456 0.503,-0.468C0.478,-0.485 0.455,-0.498 0.436,-0.507C0.417,-0.516 0.396,-0.52 0.373,-0.52C0.352,-0.52 0.336,-0.514 0.326,-0.502C0.315,-0.489 0.31,-0.474 0.31,-0.455C0.31,-0.424 0.328,-0.401 0.364,-0.385C0.401,-0.368 0.458,-0.36 0.538,-0.36C0.562,-0.36 0.58,-0.354 0.592,-0.344C0.604,-0.333 0.61,-0.315 0.61,-0.291C0.61,-0.266 0.613,-0.235 0.62,-0.198C0.622,-0.184 0.619,-0.173 0.612,-0.166C0.604,-0.158 0.595,-0.155 0.583,-0.157C0.575,-0.157 0.567,-0.16 0.559,-0.164C0.551,-0.169 0.542,-0.176 0.531,-0.184C0.511,-0.198 0.495,-0.208 0.481,-0.215C0.467,-0.222 0.45,-0.225 0.431,-0.225C0.415,-0.225 0.402,-0.221 0.392,-0.212C0.383,-0.203 0.378,-0.191 0.379,-0.174C0.379,-0.16 0.382,-0.148 0.388,-0.137C0.393,-0.127 0.401,-0.114 0.411,-0.1C0.421,-0.086 0.429,-0.074 0.433,-0.065C0.438,-0.056 0.44,-0.045 0.441,-0.034C0.44,-0.018 0.436,-0.007 0.426,-0.002C0.416,0.003 0.399,0.005 0.375,0.005L0.225,0.007L0.114,0.008C0.091,0.008 0.074,0.003 0.064,-0.008C0.055,-0.018 0.05,-0.037 0.05,-0.064C0.05,-0.121 0.047,-0.252 0.042,-0.458L0.038,-0.639C0.038,-0.661 0.045,-0.679 0.058,-0.691C0.071,-0.703 0.091,-0.707 0.118,-0.705Z" style="fill:rgb(255,255,0);fill-rule:nonzero;"></path>
                </g>
                <g transform="matrix(249.017369,0,0,249.017369,6235.026846,1678.522707)">
                    <path d="M0.067,-0.642C0.069,-0.664 0.076,-0.681 0.088,-0.692C0.099,-0.702 0.115,-0.707 0.135,-0.707L0.39,-0.702C0.421,-0.701 0.443,-0.698 0.455,-0.691C0.468,-0.683 0.474,-0.672 0.474,-0.655C0.474,-0.643 0.47,-0.63 0.463,-0.617C0.455,-0.604 0.443,-0.59 0.426,-0.574C0.387,-0.536 0.357,-0.495 0.335,-0.452C0.314,-0.408 0.303,-0.362 0.303,-0.315C0.303,-0.277 0.313,-0.243 0.332,-0.213C0.352,-0.184 0.387,-0.169 0.438,-0.169C0.459,-0.169 0.476,-0.175 0.49,-0.188C0.503,-0.201 0.51,-0.217 0.51,-0.235C0.51,-0.242 0.509,-0.25 0.506,-0.257C0.503,-0.264 0.499,-0.273 0.493,-0.282C0.488,-0.291 0.483,-0.301 0.48,-0.309C0.477,-0.318 0.475,-0.327 0.475,-0.336C0.474,-0.367 0.483,-0.391 0.501,-0.407C0.518,-0.422 0.54,-0.43 0.567,-0.43C0.587,-0.43 0.606,-0.424 0.623,-0.41C0.64,-0.397 0.65,-0.379 0.653,-0.357C0.658,-0.326 0.663,-0.283 0.666,-0.226C0.67,-0.17 0.672,-0.122 0.671,-0.081C0.671,-0.053 0.662,-0.031 0.645,-0.017C0.629,-0.002 0.607,0.005 0.579,0.005C0.523,0.005 0.447,0.004 0.352,0.002C0.234,-0 0.16,-0 0.129,0.002C0.1,0.003 0.078,-0.004 0.061,-0.019C0.044,-0.034 0.036,-0.056 0.036,-0.084C0.038,-0.253 0.048,-0.439 0.067,-0.642Z" style="fill:rgb(255,255,0);fill-rule:nonzero;"></path>
                </g>
                <g transform="matrix(249.017369,0,0,249.017369,6402.863246,1678.522707)">
                    <path d="M0.123,-0.692C0.182,-0.69 0.27,-0.691 0.387,-0.695C0.467,-0.698 0.52,-0.699 0.547,-0.699C0.563,-0.699 0.577,-0.695 0.588,-0.688C0.598,-0.68 0.604,-0.671 0.606,-0.659C0.608,-0.642 0.61,-0.624 0.612,-0.608C0.613,-0.591 0.614,-0.576 0.614,-0.561C0.613,-0.547 0.609,-0.537 0.601,-0.53C0.593,-0.524 0.583,-0.521 0.57,-0.524C0.558,-0.526 0.546,-0.533 0.533,-0.543C0.513,-0.559 0.492,-0.572 0.468,-0.581C0.445,-0.589 0.421,-0.594 0.398,-0.594C0.371,-0.594 0.353,-0.589 0.343,-0.578C0.332,-0.568 0.327,-0.553 0.327,-0.533C0.327,-0.5 0.343,-0.475 0.375,-0.456C0.408,-0.437 0.459,-0.428 0.53,-0.428C0.556,-0.428 0.575,-0.423 0.587,-0.412C0.599,-0.402 0.607,-0.384 0.61,-0.36C0.613,-0.337 0.616,-0.315 0.619,-0.296C0.622,-0.28 0.618,-0.268 0.607,-0.261C0.595,-0.254 0.581,-0.254 0.562,-0.261L0.547,-0.267C0.524,-0.277 0.504,-0.284 0.485,-0.289C0.466,-0.295 0.446,-0.297 0.423,-0.297C0.399,-0.297 0.379,-0.292 0.365,-0.28C0.351,-0.269 0.344,-0.253 0.344,-0.235C0.344,-0.204 0.363,-0.179 0.4,-0.16C0.438,-0.141 0.487,-0.132 0.549,-0.132C0.568,-0.132 0.583,-0.128 0.592,-0.12C0.602,-0.112 0.608,-0.099 0.61,-0.083L0.615,-0.042C0.616,-0.029 0.613,-0.019 0.605,-0.011C0.597,-0.004 0.587,-0.001 0.574,-0.001L0.493,-0.005C0.433,-0.007 0.343,-0.009 0.225,-0.009L0.176,-0.008C0.144,-0.006 0.118,-0.006 0.1,-0.006C0.086,-0.006 0.074,-0.007 0.065,-0.011C0.056,-0.014 0.049,-0.021 0.043,-0.031C0.038,-0.041 0.035,-0.055 0.035,-0.075C0.035,-0.104 0.042,-0.233 0.057,-0.46L0.067,-0.634C0.067,-0.655 0.071,-0.67 0.08,-0.679C0.088,-0.688 0.103,-0.693 0.123,-0.692Z" style="fill:rgb(255,255,0);fill-rule:nonzero;"></path>
                </g>
                <g transform="matrix(249.017369,0,0,249.017369,6558.248017,1678.522707)">
                    <path d="M0.364,-0.195C0.339,-0.195 0.319,-0.185 0.305,-0.167C0.29,-0.149 0.277,-0.114 0.265,-0.064C0.259,-0.039 0.249,-0.022 0.237,-0.012C0.224,-0.003 0.206,0.002 0.182,0.002L0.078,0.003C0.049,0.003 0.03,-0.004 0.021,-0.02C0.013,-0.035 0.017,-0.059 0.033,-0.092C0.046,-0.119 0.063,-0.148 0.083,-0.179C0.103,-0.21 0.126,-0.243 0.152,-0.279L0.176,-0.311C0.182,-0.32 0.185,-0.33 0.186,-0.342C0.186,-0.354 0.182,-0.367 0.174,-0.381C0.155,-0.412 0.134,-0.453 0.111,-0.502C0.088,-0.552 0.072,-0.592 0.064,-0.623C0.057,-0.649 0.057,-0.668 0.065,-0.679C0.072,-0.69 0.089,-0.696 0.115,-0.696L0.285,-0.696C0.308,-0.696 0.326,-0.691 0.337,-0.68C0.348,-0.67 0.354,-0.656 0.355,-0.637L0.355,-0.612C0.357,-0.579 0.36,-0.553 0.364,-0.535C0.367,-0.517 0.373,-0.504 0.38,-0.496C0.387,-0.489 0.396,-0.485 0.409,-0.485C0.44,-0.485 0.466,-0.498 0.487,-0.523C0.508,-0.548 0.527,-0.583 0.545,-0.63C0.555,-0.655 0.567,-0.673 0.58,-0.683C0.594,-0.692 0.613,-0.697 0.64,-0.697L0.719,-0.696C0.746,-0.696 0.763,-0.688 0.768,-0.673C0.774,-0.658 0.773,-0.633 0.763,-0.596C0.754,-0.563 0.738,-0.527 0.714,-0.487C0.69,-0.448 0.663,-0.41 0.632,-0.374C0.624,-0.365 0.621,-0.355 0.621,-0.344C0.622,-0.333 0.627,-0.32 0.636,-0.305C0.653,-0.276 0.671,-0.239 0.69,-0.192C0.71,-0.146 0.724,-0.106 0.732,-0.073C0.739,-0.046 0.739,-0.028 0.732,-0.017C0.725,-0.006 0.709,-0 0.684,-0L0.522,0.001C0.489,0.001 0.466,-0.004 0.454,-0.015C0.441,-0.025 0.433,-0.04 0.43,-0.06C0.422,-0.106 0.413,-0.14 0.404,-0.162C0.394,-0.184 0.38,-0.195 0.364,-0.195Z" style="fill:rgb(255,255,0);fill-rule:nonzero;"></path>
                </g>
                <g transform="matrix(249.017369,0,0,249.017369,6743.016138,1678.522707)">
                    <path d="M0.44,-0.701C0.454,-0.701 0.466,-0.698 0.474,-0.691C0.483,-0.683 0.488,-0.673 0.489,-0.659C0.49,-0.646 0.486,-0.63 0.478,-0.611C0.455,-0.561 0.43,-0.504 0.402,-0.442C0.369,-0.369 0.335,-0.295 0.301,-0.22C0.267,-0.146 0.242,-0.091 0.228,-0.055C0.217,-0.032 0.205,-0.016 0.191,-0.007C0.177,0.001 0.159,0.006 0.138,0.005L0.075,0.004C0.048,0.004 0.03,-0.005 0.021,-0.021C0.011,-0.037 0.014,-0.058 0.028,-0.084C0.041,-0.111 0.069,-0.17 0.111,-0.26C0.153,-0.35 0.193,-0.435 0.231,-0.517L0.291,-0.648C0.302,-0.668 0.313,-0.681 0.325,-0.689C0.337,-0.696 0.355,-0.7 0.377,-0.7C0.391,-0.7 0.401,-0.701 0.41,-0.701C0.42,-0.701 0.429,-0.701 0.44,-0.701Z" style="fill:rgb(255,255,0);fill-rule:nonzero;"></path>
                </g>
                <g transform="matrix(249.017369,0,0,249.017369,6868.767325,1678.522707)">
                </g>
            </g>
        </g>
        <g transform="matrix(1.294118,0,0,0.772727,-7282.107843,0)">
            <g transform="matrix(0.772727,0,0,1.294118,7415.647871,2085.979561)">
                <g transform="matrix(0.9,0,0,1,0,0)">
                    <text x="0px" y="0px" style="font-family:&#39;HelveticaNeue&#39;, &#39;Helvetica Neue&#39;;font-size:75px;fill:rgb(255,255,0);">Gestion d&#39;inventair<tspan x="627.9px " y="0px ">e</tspan></text>
                </g>
                <g transform="matrix(0.9,0,0,1,13.25025,0)">
                    <text x="132.503px" y="83.333px" style="font-family:&#39;HelveticaNeue&#39;, &#39;Helvetica Neue&#39;;font-size:75px;fill:rgb(255,255,0);">et de stock</text>
                </g>
            </g>
        </g>
    </g>
</svg>