<?xml version="1.0"?>

<svg width="100%" height="100%" viewBox="0 0 417 417" version="1.1" xmlns="http://www.w3.org/2000/svg" xmlns:xlink="http://www.w3.org/1999/xlink" xml:space="preserve" xmlns:serif="http://www.serif.com/" style="fill-rule:evenodd;clip-rule:evenodd;stroke-linejoin:round;stroke-miterlimit:2;">
    <g transform="matrix(1,0,0,1,-2407.610398,-2000.3992)">
        <g transform="matrix(1.294118,0,0,0.772727,-7282.107843,0)">
            <g transform="matrix(1.246334,0,0,2.087287,5668.619956,2046.334249)">
                <path d="M1588.558,259.867C1659.847,259.867 1717.725,317.745 1717.725,389.034C1717.725,460.323 1659.847,518.201 1588.558,518.201C1517.269,518.201 1459.391,460.323 1459.391,389.034C1459.391,317.745 1517.269,259.867 1588.558,259.867ZM1513.662,329.638C1524.467,330.36 1543.717,330.61 1571.412,330.388L1585.037,330.388C1587.759,330.388 1589.961,331.02 1591.641,332.284C1593.322,333.548 1594.356,335.249 1594.745,337.388C1595.412,340.722 1595.94,345.617 1596.329,352.076C1596.717,358.534 1596.912,363.985 1596.912,368.43C1596.912,370.511 1596.316,372.129 1595.125,373.283C1593.934,374.436 1592.385,375.013 1590.477,375.013C1588.628,375.013 1586.808,374.555 1585.016,373.638C1583.224,372.722 1580.787,371.235 1577.704,369.18C1573.537,366.374 1569.863,364.215 1566.683,362.701C1563.502,361.187 1559.967,360.43 1556.079,360.43C1552.587,360.43 1549.978,361.464 1548.252,363.531C1546.525,365.599 1545.662,368.202 1545.662,371.341C1545.662,376.456 1548.676,380.374 1554.704,383.097C1560.731,385.819 1570.356,387.18 1583.579,387.18C1587.579,387.18 1590.579,388.097 1592.579,389.93C1594.579,391.763 1595.579,394.68 1595.579,398.68C1595.606,402.791 1596.148,407.971 1597.204,414.219C1597.62,416.498 1597.204,418.27 1595.954,419.534C1594.704,420.798 1593.118,421.305 1591.196,421.055C1589.84,420.972 1588.495,420.548 1587.162,419.784C1585.829,419.02 1584.259,417.902 1582.454,416.43C1579.204,414.18 1576.405,412.492 1574.058,411.367C1571.711,410.242 1568.94,409.68 1565.745,409.68C1563.051,409.68 1560.905,410.402 1559.308,411.847C1557.711,413.291 1556.954,415.402 1557.037,418.18C1557.148,420.485 1557.669,422.527 1558.599,424.305C1559.53,426.083 1560.829,428.152 1562.495,430.513C1564.19,432.874 1565.426,434.826 1566.204,436.367C1566.981,437.909 1567.37,439.624 1567.37,441.513C1567.37,444.263 1566.551,446.034 1564.912,446.826C1563.273,447.617 1560.454,448.013 1556.454,448.013L1531.412,448.347L1512.995,448.513C1509.051,448.513 1506.28,447.631 1504.683,445.867C1503.086,444.103 1502.287,440.985 1502.287,436.513C1502.231,427.069 1501.787,405.18 1500.954,370.847L1500.329,340.763C1500.329,336.958 1501.419,334.062 1503.599,332.076C1505.78,330.09 1509.134,329.277 1513.662,329.638ZM1668.536,330.305C1670.952,330.305 1672.89,330.902 1674.348,332.097C1675.807,333.291 1676.612,335.013 1676.765,337.263C1676.918,339.513 1676.3,342.194 1674.911,345.305C1671.105,353.694 1666.911,363.11 1662.327,373.555C1656.744,385.722 1651.105,398.027 1645.411,410.472C1639.716,422.916 1635.661,432.097 1633.244,438.013C1631.494,441.902 1629.459,444.562 1627.14,445.992C1624.82,447.423 1621.855,448.097 1618.244,448.013L1607.827,447.847C1603.327,447.763 1600.293,446.395 1598.723,443.742C1597.154,441.09 1597.55,437.555 1599.911,433.138C1602.161,428.61 1606.793,418.86 1613.807,403.888C1620.82,388.916 1627.452,374.638 1633.702,361.055L1643.869,339.138C1645.563,335.888 1647.432,333.638 1649.473,332.388C1651.515,331.138 1654.397,330.513 1658.119,330.513C1660.369,330.485 1662.202,330.43 1663.619,330.347C1665.202,330.319 1666.841,330.305 1668.536,330.305Z" style="fill:rgb(128,102,66);"></path>
            </g>
        </g>
    </g>
</svg>